<svg xmlns="http://www.w3.org/2000/svg" xmlns:xlink="http://www.w3.org/1999/xlink" version="1.1" x="0px" y="0px" viewBox="0 0 100 125" style="enable-background:new 0 0 100 100;" xml:space="preserve"><g><g><path style="" d="M49.244,7.692c-28.781,0-43.17,14.251-43.17,42.752s14.389,42.751,43.17,42.751    c28.825,0,43.238-14.25,43.238-42.751S78.069,7.692,49.244,7.692z M74.465,76.461c-5.288,5.497-13.694,8.246-25.221,8.246    c-11.436,0-19.81-2.748-25.12-8.246c-5.31-5.496-7.965-14.169-7.965-26.017c0-11.849,2.655-20.522,7.965-26.018    c5.31-5.497,13.684-8.246,25.12-8.246c11.527,0,19.933,2.749,25.221,8.246c5.287,5.496,7.931,14.169,7.931,26.018    C82.396,62.292,79.752,70.965,74.465,76.461z" fill="#231F20"/><path style="" d="M58.738,33.721H39.186c-2.061,0-3.315,0.826-4.059,2.161c-0.622,0.858-0.993,1.911-0.993,3.052    V41.3v18.288v2.366c0,1.141,0.371,2.193,0.993,3.052c0.744,1.335,1.998,2.161,4.059,2.161h19.551c4.186,0,5.684-3.393,5.684-7.578    V41.3C64.422,37.114,62.923,33.721,58.738,33.721z" fill="#231F20"/></g></g><text x="0" y="115" fill="#000000" font-size="5px" font-weight="bold" font-family="'Helvetica Neue', Helvetica, Arial-Unicode, Arial, Sans-serif">Created by NAS</text><text x="0" y="120" fill="#000000" font-size="5px" font-weight="bold" font-family="'Helvetica Neue', Helvetica, Arial-Unicode, Arial, Sans-serif">from the Noun Project</text></svg>