<svg xmlns="http://www.w3.org/2000/svg" xmlns:xlink="http://www.w3.org/1999/xlink" version="1.1" x="0px" y="0px" viewBox="0 0 100 125" enable-background="new 0 0 100 100" xml:space="preserve"><g display="none"><g display="inline"><path fill="#000000" d="M90.359,44.743c-34.483,17.186-62.092,9.979-80.719,1.774C30.043,54.39,67.629,54.61,90.359,44.743z"/></g></g><g><g><path fill="#000000" d="M84.731,58.649c-8.702-2.17-17.34-3.973-21.509-9.094c-6.3-7.734-8.352-22.76-9.313-35.258    C53.51,9.106,53.729,1.223,49.252,3.654c-2.099,2.727-2.102,10.321-2.439,13.97c-1.363,14.694-4.052,29.18-13.305,35.479    c-3.732,2.542-7.938,3.595-13.971,5.103c-3.516,0.877-9.254,2.324-9.909,5.074c22.656,5.828,64.796,2.24,80.792-1.249    C89.978,60.154,87.71,59.392,84.731,58.649z M9.666,64.492c0.587,1.955,3.623,2.938,5.881,3.692    c7.43,2.484,16.258,5.309,20.622,10.643c2.085,2.551,3.806,6.549,5.766,10.201c1.578,2.939,3.586,8.027,8.428,7.762    c3.993-0.219,6.742-5.746,8.426-9.092c2.099-4.174,3.751-8.359,6.208-11.531c3.399-4.391,10.198-6.916,16.188-8.648    c1.659-0.48,8.113-1.411,9.16-3.998C89.709,63.649,38.125,74.094,9.666,64.492z M90.495,62.768    c-0.001,0.064-0.007,0.118-0.012,0.175c0.002-0.027,0.014-0.053,0.015-0.08C90.499,62.829,90.495,62.8,90.495,62.768z"/></g></g><text x="0" y="115" fill="#000000" font-size="5px" font-weight="bold" font-family="'Helvetica Neue', Helvetica, Arial-Unicode, Arial, Sans-serif">Created by Mr. Blune</text><text x="0" y="120" fill="#000000" font-size="5px" font-weight="bold" font-family="'Helvetica Neue', Helvetica, Arial-Unicode, Arial, Sans-serif">from the Noun Project</text></svg>