<svg xmlns="http://www.w3.org/2000/svg" xmlns:xlink="http://www.w3.org/1999/xlink" version="1.1" x="0px" y="0px" viewBox="0 0 100 125" style="enable-background:new 0 0 100 100;" xml:space="preserve"><g><g><path style="" d="M48.931,7.692c-28.781,0-43.17,14.251-43.17,42.752s14.389,42.751,43.17,42.751    c28.825,0,43.238-14.25,43.238-42.751S77.756,7.692,48.931,7.692z M74.152,76.461c-5.288,5.497-13.694,8.246-25.221,8.246    c-11.436,0-19.81-2.748-25.12-8.246c-5.31-5.496-7.965-14.169-7.965-26.017c0-11.849,2.655-20.522,7.965-26.018    c5.31-5.497,13.684-8.246,25.12-8.246c11.527,0,19.933,2.749,25.221,8.246c5.287,5.496,7.931,14.169,7.931,26.018    C82.083,62.292,79.439,70.965,74.152,76.461z" fill="#231F20"/><path style="" d="M64.771,46.535L43.67,30.258c-1.66-1.28-3.968-1.754-6.109-1.424    c-0.299-0.063-0.604-0.103-0.917-0.103c-3.014,0-5.457,3.03-5.457,6.768v29.889c0,3.738,2.443,6.768,5.457,6.768    c0.313,0,0.618-0.04,0.917-0.103c2.141,0.33,4.449-0.144,6.109-1.424l21.102-16.277c1.393-1.075,2.043-2.501,1.966-3.909    C66.815,49.037,66.165,47.61,64.771,46.535z" fill="#231F20"/></g></g><text x="0" y="115" fill="#000000" font-size="5px" font-weight="bold" font-family="'Helvetica Neue', Helvetica, Arial-Unicode, Arial, Sans-serif">Created by NAS</text><text x="0" y="120" fill="#000000" font-size="5px" font-weight="bold" font-family="'Helvetica Neue', Helvetica, Arial-Unicode, Arial, Sans-serif">from the Noun Project</text></svg>