<svg xmlns="http://www.w3.org/2000/svg" xmlns:xlink="http://www.w3.org/1999/xlink" xmlns:sketch="http://www.bohemiancoding.com/sketch/ns" viewBox="0 0 45 72.5" version="1.1" x="0px" y="0px"><title>25 - JSON FIle (Solid)</title><desc>Created with Sketch.</desc><g stroke="none" stroke-width="1" fill="none" fill-rule="evenodd" sketch:type="MSPage"><g sketch:type="MSLayerGroup" fill="#000000"><path d="M27.155,45.988 C26.923,45.679 26.658,45.455 26.362,45.318 C26.066,45.182 25.754,45.113 25.426,45.113 C25.089,45.113 24.768,45.177 24.462,45.305 C24.156,45.433 23.883,45.648 23.642,45.954 C23.4,46.26 23.211,46.653 23.074,47.137 C22.937,47.62 22.864,48.212 22.856,48.914 C22.864,49.598 22.935,50.181 23.067,50.664 C23.199,51.147 23.382,51.541 23.614,51.847 C23.847,52.152 24.111,52.375 24.407,52.517 C24.703,52.658 25.016,52.728 25.344,52.728 C25.681,52.728 26.002,52.662 26.308,52.53 C26.613,52.398 26.887,52.182 27.128,51.881 C27.369,51.58 27.559,51.185 27.695,50.698 C27.832,50.211 27.905,49.616 27.914,48.914 C27.905,48.23 27.834,47.649 27.702,47.171 C27.57,46.692 27.388,46.298 27.155,45.988" sketch:type="MSShapeGroup"/><path d="M45,39 L45,13.978 C45,13.212 44.908,12.645 44.45,12.186 L32.813,0.55 C32.464,0.201 31.98,0 31.485,0 L2.463,0 C1.277,0 0,0.915 0,2.926 L0,39 L45,39 L45,39 Z M23,33 C23,33.552 22.553,34 22,34 C21.447,34 21,33.552 21,33 L21,30 C21,29.448 21.447,29 22,29 C22.553,29 23,29.448 23,30 L23,33 L23,33 Z M31,3.391 C31,2.934 31.553,2.704 31.877,3.028 L41.972,13.123 C42.296,13.447 42.066,14 41.609,14 L31,14 L31,3.391 L31,3.391 Z M30,24 L30,20 C30,19.449 29.552,19 29,19 C28.447,19 28,18.552 28,18 C28,17.448 28.447,17 29,17 C30.654,17 32,18.346 32,20 L32,24 C32,25.103 32.898,26 34,26 C34.553,26 35,26.448 35,27 C35,27.552 34.553,28 34,28 C32.898,28 32,28.897 32,30 L32,34 C32,35.654 30.654,37 29,37 C28.447,37 28,36.552 28,36 C28,35.448 28.447,35 29,35 C29.552,35 30,34.551 30,34 L30,30 C30,28.8 30.542,27.734 31.382,27 C30.542,26.266 30,25.2 30,24 L30,24 Z M22,22 C22.828,22 23.5,22.672 23.5,23.5 C23.5,24.328 22.828,25 22,25 C21.172,25 20.5,24.328 20.5,23.5 C20.5,22.672 21.172,22 22,22 L22,22 Z M10,26 C11.102,26 12,25.103 12,24 L12,20 C12,18.346 13.346,17 15,17 C15.553,17 16,17.448 16,18 C16,18.552 15.553,19 15,19 C14.448,19 14,19.449 14,20 L14,24 C14,25.2 13.458,26.266 12.618,27 C13.458,27.734 14,28.8 14,30 L14,34 C14,34.551 14.448,35 15,35 C15.553,35 16,35.448 16,36 C16,36.552 15.553,37 15,37 C13.346,37 12,35.654 12,34 L12,30 C12,28.897 11.102,28 10,28 C9.447,28 9,27.552 9,27 C9,26.448 9.447,26 10,26 L10,26 Z" sketch:type="MSShapeGroup"/><path d="M0,41 L0,56 C0,57.009 1.22,58 2.463,58 L42.537,58 C43.78,58 45,57.009 45,56 L45,41 L0,41 L0,41 Z M11.521,51.566 C11.521,52.04 11.435,52.44 11.262,52.763 C11.089,53.086 10.856,53.346 10.565,53.542 C10.273,53.738 9.937,53.875 9.56,53.952 C9.182,54.029 8.792,54.068 8.391,54.068 C8.19,54.068 7.955,54.048 7.686,54.007 C7.418,53.966 7.14,53.902 6.852,53.815 C6.565,53.728 6.29,53.631 6.025,53.521 C5.761,53.412 5.538,53.289 5.356,53.152 L6.053,52.045 C6.144,52.108 6.273,52.175 6.442,52.243 C6.611,52.311 6.796,52.375 6.996,52.435 C7.196,52.494 7.406,52.546 7.625,52.592 C7.844,52.638 8.049,52.66 8.24,52.66 C8.724,52.66 9.108,52.566 9.396,52.38 C9.683,52.193 9.835,51.876 9.854,51.43 L9.854,43.719 L11.521,43.719 L11.521,51.566 L11.521,51.566 Z M19.458,52.298 C19.308,52.64 19.096,52.94 18.822,53.2 C18.549,53.46 18.212,53.667 17.81,53.822 C17.409,53.978 16.954,54.055 16.443,54.055 C16.225,54.055 15.999,54.043 15.767,54.021 C15.534,53.998 15.3,53.959 15.062,53.904 C14.825,53.85 14.6,53.774 14.386,53.679 C14.172,53.583 13.987,53.467 13.832,53.33 L14.119,52.154 C14.247,52.228 14.408,52.298 14.604,52.366 C14.801,52.435 15.003,52.498 15.213,52.558 C15.423,52.617 15.632,52.665 15.842,52.701 C16.052,52.737 16.247,52.756 16.43,52.756 C16.985,52.756 17.412,52.626 17.708,52.366 C18.004,52.106 18.152,51.722 18.152,51.211 C18.152,50.901 18.048,50.637 17.838,50.418 C17.628,50.199 17.366,50.001 17.052,49.823 C16.737,49.645 16.398,49.468 16.033,49.29 C15.669,49.112 15.327,48.902 15.008,48.661 C14.688,48.42 14.425,48.135 14.215,47.807 C14.005,47.478 13.9,47.068 13.9,46.576 C13.9,46.13 13.982,45.733 14.146,45.387 C14.31,45.04 14.531,44.746 14.81,44.505 C15.088,44.264 15.411,44.079 15.78,43.951 C16.149,43.823 16.539,43.76 16.949,43.76 C17.368,43.76 17.792,43.799 18.221,43.876 C18.649,43.953 18.995,44.079 19.26,44.252 C19.205,44.37 19.142,44.5 19.068,44.642 C18.995,44.783 18.927,44.915 18.863,45.038 C18.8,45.161 18.745,45.264 18.699,45.346 C18.653,45.428 18.626,45.474 18.617,45.482 C18.562,45.455 18.501,45.419 18.433,45.373 C18.364,45.327 18.267,45.282 18.139,45.236 C18.011,45.19 17.843,45.159 17.633,45.141 C17.423,45.122 17.154,45.127 16.826,45.154 C16.644,45.173 16.471,45.225 16.307,45.311 C16.143,45.398 15.997,45.505 15.869,45.633 C15.741,45.761 15.642,45.904 15.568,46.064 C15.495,46.223 15.459,46.376 15.459,46.522 C15.459,46.886 15.563,47.18 15.773,47.403 C15.983,47.627 16.243,47.822 16.553,47.991 C16.862,48.16 17.2,48.324 17.565,48.483 C17.929,48.643 18.269,48.837 18.583,49.065 C18.898,49.292 19.159,49.577 19.369,49.919 C19.579,50.261 19.684,50.7 19.684,51.238 C19.684,51.602 19.608,51.956 19.458,52.298 L19.458,52.298 Z M29.261,51.156 C29.047,51.804 28.75,52.341 28.372,52.77 C27.994,53.198 27.552,53.521 27.046,53.74 C26.54,53.959 25.986,54.068 25.385,54.068 C24.783,54.068 24.229,53.959 23.724,53.74 C23.218,53.521 22.775,53.198 22.398,52.77 C22.019,52.341 21.723,51.804 21.509,51.156 C21.295,50.509 21.187,49.762 21.187,48.914 C21.187,48.066 21.295,47.321 21.509,46.679 C21.723,46.036 22.019,45.501 22.398,45.072 C22.775,44.644 23.218,44.318 23.724,44.095 C24.229,43.871 24.783,43.76 25.385,43.76 C25.986,43.76 26.54,43.871 27.046,44.095 C27.552,44.318 27.994,44.644 28.372,45.072 C28.75,45.501 29.047,46.036 29.261,46.679 C29.475,47.321 29.582,48.066 29.582,48.914 C29.582,49.762 29.475,50.509 29.261,51.156 L29.261,51.156 Z M39.18,54 L37.512,54 L33.56,47.055 L33.56,54 L31.893,54 L31.893,43.924 L33.56,43.924 L37.512,50.869 L37.512,43.924 L39.18,43.924 L39.18,54 L39.18,54 Z" sketch:type="MSShapeGroup"/></g></g><text x="0" y="73" fill="#000000" font-size="5px" font-weight="bold" font-family="'Helvetica Neue', Helvetica, Arial-Unicode, Arial, Sans-serif">Created by Oliviu Stoian</text><text x="0" y="78" fill="#000000" font-size="5px" font-weight="bold" font-family="'Helvetica Neue', Helvetica, Arial-Unicode, Arial, Sans-serif">from the Noun Project</text></svg>