<svg xmlns="http://www.w3.org/2000/svg" xmlns:xlink="http://www.w3.org/1999/xlink" version="1.1" x="0px" y="0px" viewBox="0 0 100 125" enable-background="new 0 0 100 100" xml:space="preserve"><path d="M91.651,15H48.349L70,52.5l7.859-13.613C79.255,42.379,80,46.118,80,50c0,16.542-13.458,30-30,30  c-1.32,0-2.61,0.53-3.54,1.46C45.53,82.39,45,83.68,45,85c0,1.31,0.53,2.6,1.46,3.54C47.4,89.47,48.69,90,50,90  c22.056,0,40-17.944,40-40c0-7.584-2.184-15.024-6.207-21.39L91.651,15z"/><path d="M22.28,61.49c-1.06-2.551-3.99-3.761-6.53-2.7c-2.56,1.06-3.77,3.99-2.71,6.54c0.8,1.92,2.66,3.08,4.62,3.08  c0.64,0,1.29-0.12,1.92-0.38C22.13,66.97,23.34,64.04,22.28,61.49z"/><path d="M21.72,71.22c-1.95,1.95-1.95,5.12,0,7.07c0.98,0.97,2.26,1.46,3.54,1.46c1.28,0,2.55-0.49,3.53-1.46  c1.95-1.96,1.95-5.12,0-7.07C26.84,69.26,23.67,69.27,21.72,71.22z"/><path d="M38.52,77.729c-2.55-1.06-5.48,0.15-6.54,2.7c-1.05,2.55,0.16,5.48,2.71,6.53c0.62,0.26,1.27,0.39,1.91,0.39  c1.96,0,3.82-1.16,4.62-3.09C42.28,81.71,41.07,78.78,38.52,77.729z"/><path d="M18.54,53.53C19.47,52.6,20,51.319,20,50c0-1.32-0.53-2.61-1.46-3.54C17.61,45.53,16.32,45,15,45  c-1.32,0-2.61,0.53-3.54,1.46C10.53,47.39,10,48.68,10,50c0,1.319,0.53,2.6,1.46,3.53C12.4,54.47,13.68,55,15,55  C16.32,55,17.6,54.47,18.54,53.53z"/><text x="0" y="115" fill="#000000" font-size="5px" font-weight="bold" font-family="'Helvetica Neue', Helvetica, Arial-Unicode, Arial, Sans-serif">Created by Arthur Shlain</text><text x="0" y="120" fill="#000000" font-size="5px" font-weight="bold" font-family="'Helvetica Neue', Helvetica, Arial-Unicode, Arial, Sans-serif">from the Noun Project</text></svg>