<svg xmlns="http://www.w3.org/2000/svg" xmlns:xlink="http://www.w3.org/1999/xlink" version="1.1" x="0px" y="0px" viewBox="0 0 90 112.5" style="enable-background:new 0 0 90 90;" xml:space="preserve"><path d="M37.3,46.2L37.3,46.2c0.2,1.8-1.1,3.4-2.8,3.6L15,52.3c-2.7,0.3-5-2-4.6-4.8l2.8-18.8c0.3-1.8,1.9-3,3.7-2.7l0.1,0  c1.8,0.3,3,1.9,2.7,3.7l-1.5,10.2l28.2-28.2c1.3-1.3,3.4-1.3,4.7,0l0,0c1.3,1.3,1.3,3.4,0,4.7L22.7,44.8l10.9-1.4  C35.4,43.1,37.1,44.4,37.3,46.2z M52.7,43.9l0,0.2c0.3,1.8,1.9,3,3.7,2.7l9.6-1.4L38.3,73.1c-1.3,1.3-1.3,3.4,0,4.7h0  c1.3,1.3,3.4,1.3,4.7,0L71.7,49l-1.5,11.5c-0.2,1.8,1,3.4,2.9,3.7h0c1.8,0.2,3.4-1.1,3.6-2.8l2.4-19.4c0.3-2.7-2-5-4.8-4.6  l-18.9,2.8C53.6,40.4,52.4,42.1,52.7,43.9z"/><text x="0" y="105" fill="#000000" font-size="5px" font-weight="bold" font-family="'Helvetica Neue', Helvetica, Arial-Unicode, Arial, Sans-serif">Created by Michelle Fosse</text><text x="0" y="110" fill="#000000" font-size="5px" font-weight="bold" font-family="'Helvetica Neue', Helvetica, Arial-Unicode, Arial, Sans-serif">from the Noun Project</text></svg>